<svg width="800" height="800" viewBox="0 0 1920 1920" xmlns="http://www.w3.org/2000/svg"><path d="m774 1070 711 711c39 39 104 39 144 0l138-139a101 101 0 0 0 0-144l-699-698 12-33c63-179 18-380-115-514a496 496 0 0 0-472-128l272 272a171 171 0 0 1 0 243L654 751c-67 67-176 67-243 0L139 479c-43 166 4 348 128 472a495 495 0 0 0 476 127l31-8Zm783 850c-54 0-109-21-150-62l-667-667a605 605 0 0 1-550-163A606 606 0 0 1 66 356l32-72 390 390c25 24 65 24 89 0l111-111a62 62 0 0 0 0-89L298 84l72-32a606 606 0 0 1 672 124 606 606 0 0 1 152 594l650 651a210 210 0 0 1 0 299l-138 138c-41 41-95 62-149 62Z" fill-rule="evenodd"/></svg>