<svg width="800" height="800" viewBox="0 0 24 24" fill="none" xmlns="http://www.w3.org/2000/svg"><path fill-rule="evenodd" clip-rule="evenodd" d="M4.19 11.38c-.16.38-.19.57-.19.62v8a1 1 0 0 0 1 1h3v-6c0-1.1.9-2 2-2h4a2 2 0 0 1 2 2v6h3a1 1 0 0 0 1-1v-8c0-.05-.03-.24-.19-.62-.14-.35-.37-.79-.66-1.28a25.5 25.5 0 0 0-5.1-6.04 7.2 7.2 0 0 0-1.24-.82A1.95 1.95 0 0 0 12 3c-.16 0-.43.06-.8.24a7.2 7.2 0 0 0-1.25.82 25.5 25.5 0 0 0-5.1 6.04c-.3.5-.52.93-.66 1.28Zm6.12-9.93C10.84 1.2 11.4 1 12 1c.59 0 1.16.2 1.7.45.52.26 1.07.63 1.6 1.05a27.49 27.49 0 0 1 5.58 6.59c.32.54.59 1.06.78 1.52.18.44.34.94.34 1.39v8a3 3 0 0 1-3 3h-3a2 2 0 0 1-2-2v-6h-4v6a2 2 0 0 1-2 2H5a3 3 0 0 1-3-3v-8c0-.45.16-.95.34-1.39.2-.46.46-.98.78-1.52a27.49 27.49 0 0 1 5.59-6.6 9.17 9.17 0 0 1 1.6-1.04Z" fill="#0F0F0F"/></svg>